<svg xmlns="http://www.w3.org/2000/svg" viewBox="0 0 128 128" width="128" height="128">
  <defs>
    <linearGradient id="bg" x1="0%" y1="0%" x2="100%" y2="100%">
      <stop offset="0%" style="stop-color:#34a853"/>
      <stop offset="100%" style="stop-color:#4285f4"/>
    </linearGradient>
    <linearGradient id="play" x1="0%" y1="0%" x2="0%" y2="100%">
      <stop offset="0%" style="stop-color:#fff;stop-opacity:1"/>
      <stop offset="100%" style="stop-color:#fff;stop-opacity:0.9"/>
    </linearGradient>
  </defs>
  <rect width="128" height="128" rx="24" fill="url(#bg)"/>
  <path fill="url(#play)" d="M52 36c-1.1 0-2 .9-2 2v52c0 1.1.9 2 2 2 .3 0 .5-.1.7-.2l36-26c.9-.6.9-1.9 0-2.6l-36-26c-.2-.1-.4-.2-.7-.2z"/>
  <path fill="rgba(255,255,255,0.5)" d="M52 36c-1.1 0-2 .9-2 2v52c0 1.1.9 2 2 2 .3 0 .5-.1.7-.2l36-26c.9-.6.9-1.9 0-2.6l-36-26c-.2-.1-.4-.2-.7-.2z" opacity="0.3"/>
</svg>
